REM DIRINDEX 1\2\5,1\2\6,1\2\7,1\2\8,1\3\9,1\3\10,1\3\11,1\4\12,1\4\13,1\4\14,1\4\15,1\4\16
REM DIRNAME cjc034,folder01,folder02,folder03,folder04,folder05,folder06,folder07,folder08,folder09,folder10,folder11,folder12,folder13,folder14,folder15
TITLE ""
FILE "1200_sec02_0323_0330.mp3" MP3
  TRACK 01 AUDIO
    TITLE "0:"
    INDEX 01 00:00:00
  TRACK 02 AUDIO
    TITLE "12:cjc034_04930"
    INDEX 01 00:00:17
  TRACK 03 AUDIO
    TITLE "0:"
    INDEX 01 00:01:26
  TRACK 04 AUDIO
    TITLE "13:cjc034_04931"
    INDEX 01 00:01:56
  TRACK 05 AUDIO
    TITLE "0:"
    INDEX 01 00:04:13
  TRACK 06 AUDIO
    TITLE "14:cjc034_04932"
    INDEX 01 00:04:44
  TRACK 07 AUDIO
    TITLE "0:"
    INDEX 01 00:05:50
  TRACK 08 AUDIO
    TITLE "15:cjc034_04933"
    INDEX 01 00:06:08
  TRACK 09 AUDIO
    TITLE "0:"
    INDEX 01 00:10:72
  TRACK 10 AUDIO
    TITLE "12:cjc034_04934"
    INDEX 01 00:12:28
  TRACK 11 AUDIO
    TITLE "0:"
    INDEX 01 00:13:35
  TRACK 12 AUDIO
    TITLE "13:cjc034_04935"
    INDEX 01 00:13:69
  TRACK 13 AUDIO
    TITLE "0:"
    INDEX 01 00:17:14
  TRACK 14 AUDIO
    TITLE "14:cjc034_04936"
    INDEX 01 00:17:47
  TRACK 15 AUDIO
    TITLE "0:"
    INDEX 01 00:18:54
  TRACK 16 AUDIO
    TITLE "15:cjc034_04937"
    INDEX 01 00:19:13
  TRACK 17 AUDIO
    TITLE "0:"
    INDEX 01 00:23:16
  TRACK 18 AUDIO
    TITLE "12:cjc034_04938"
    INDEX 01 00:24:47
  TRACK 19 AUDIO
    TITLE "0:"
    INDEX 01 00:26:03
  TRACK 20 AUDIO
    TITLE "13:cjc034_04939"
    INDEX 01 00:26:38
  TRACK 21 AUDIO
    TITLE "0:"
    INDEX 01 00:31:12
  TRACK 22 AUDIO
    TITLE "14:cjc034_04940"
    INDEX 01 00:31:45
  TRACK 23 AUDIO
    TITLE "0:"
    INDEX 01 00:33:01
  TRACK 24 AUDIO
    TITLE "15:cjc034_04941"
    INDEX 01 00:33:32
  TRACK 25 AUDIO
    TITLE "0:"
    INDEX 01 00:38:10
  TRACK 26 AUDIO
    TITLE "12:cjc034_04942"
    INDEX 01 00:39:41
  TRACK 27 AUDIO
    TITLE "0:"
    INDEX 01 00:40:72
  TRACK 28 AUDIO
    TITLE "13:cjc034_04943"
    INDEX 01 00:41:30
  TRACK 29 AUDIO
    TITLE "0:"
    INDEX 01 00:42:31
  TRACK 30 AUDIO
    TITLE "14:cjc034_04944"
    INDEX 01 00:42:65
  TRACK 31 AUDIO
    TITLE "0:"
    INDEX 01 00:44:20
  TRACK 32 AUDIO
    TITLE "15:cjc034_04945"
    INDEX 01 00:44:52
  TRACK 33 AUDIO
    TITLE "0:"
    INDEX 01 00:48:38
  TRACK 34 AUDIO
    TITLE "12:cjc034_04946"
    INDEX 01 00:49:70
  TRACK 35 AUDIO
    TITLE "0:"
    INDEX 01 00:51:01
  TRACK 36 AUDIO
    TITLE "13:cjc034_04947"
    INDEX 01 00:51:34
  TRACK 37 AUDIO
    TITLE "0:"
    INDEX 01 00:55:22
  TRACK 38 AUDIO
    TITLE "14:cjc034_04948"
    INDEX 01 00:55:53
  TRACK 39 AUDIO
    TITLE "0:"
    INDEX 01 00:56:59
  TRACK 40 AUDIO
    TITLE "15:cjc034_04949"
    INDEX 01 00:57:17
  TRACK 41 AUDIO
    TITLE "0:"
    INDEX 01 01:01:23
  TRACK 42 AUDIO
    TITLE "12:cjc034_04950"
    INDEX 01 01:02:57
  TRACK 43 AUDIO
    TITLE "0:"
    INDEX 01 01:03:63
  TRACK 44 AUDIO
    TITLE "13:cjc034_04951"
    INDEX 01 01:04:21
  TRACK 45 AUDIO
    TITLE "0:"
    INDEX 01 01:05:13
  TRACK 46 AUDIO
    TITLE "14:cjc034_04952"
    INDEX 01 01:05:46
  TRACK 47 AUDIO
    TITLE "0:"
    INDEX 01 01:06:53
  TRACK 48 AUDIO
    TITLE "15:cjc034_04953"
    INDEX 01 01:07:10
  TRACK 49 AUDIO
    TITLE "0:"
    INDEX 01 01:10:57
  TRACK 50 AUDIO
    TITLE "12:cjc034_04954"
    INDEX 01 01:12:15
  TRACK 51 AUDIO
    TITLE "0:"
    INDEX 01 01:13:34
  TRACK 52 AUDIO
    TITLE "13:cjc034_04955"
    INDEX 01 01:13:69
  TRACK 53 AUDIO
    TITLE "0:"
    INDEX 01 01:17:26
  TRACK 54 AUDIO
    TITLE "14:cjc034_04956"
    INDEX 01 01:17:61
  TRACK 55 AUDIO
    TITLE "0:"
    INDEX 01 01:19:07
  TRACK 56 AUDIO
    TITLE "15:cjc034_04957"
    INDEX 01 01:19:42
  TRACK 57 AUDIO
    TITLE "0:"
    INDEX 01 01:24:22
  TRACK 58 AUDIO
    TITLE "12:cjc034_04958"
    INDEX 01 01:25:55
  TRACK 59 AUDIO
    TITLE "0:"
    INDEX 01 01:26:66
  TRACK 60 AUDIO
    TITLE "13:cjc034_04959"
    INDEX 01 01:27:28
  TRACK 61 AUDIO
    TITLE "0:"
    INDEX 01 01:29:25
  TRACK 62 AUDIO
    TITLE "14:cjc034_04960"
    INDEX 01 01:29:56
  TRACK 63 AUDIO
    TITLE "0:"
    INDEX 01 01:30:69
  TRACK 64 AUDIO
    TITLE "15:cjc034_04961"
    INDEX 01 01:31:28
  TRACK 65 AUDIO
    TITLE "0:"
    INDEX 01 01:36:31
